<svg xmlns="http://www.w3.org/2000/svg" version="1.1" xmlnsXlink="http://www.w3.org/1999/xlink" xmlnsSvgjs="http://svgjs.dev/svgjs" width="2000" height="1252" viewBox="0 0 2000 1252"><g transform="matrix(1,0,0,1,-1.2121212121212466,-2.01935483870966)"><svg viewBox="0 0 396 248" data-background-color="#ffffff" preserveAspectRatio="xMidYMid meet" height="1252" width="2000" xmlns="http://www.w3.org/2000/svg" xmlnsXlink="http://www.w3.org/1999/xlink"><g id="tight-bounds" transform="matrix(1,0,0,1,0.2400000000000091,0.4000000000000057)"><svg viewBox="0 0 395.52 247.2" height="247.2" width="395.52"><g><svg></svg></g><g><svg viewBox="0 0 395.52 247.2" height="247.2" width="395.52"><g transform="matrix(1,0,0,1,75.54432000000001,106.9651636266429)"><svg viewBox="0 0 244.43135999999996 33.269672746714186" height="33.269672746714186" width="244.43135999999996"><g><svg viewBox="0 0 244.43135999999996 33.269672746714186" height="33.269672746714186" width="244.43135999999996"><g><svg viewBox="0 0 244.43135999999996 33.269672746714186" height="33.269672746714186" width="244.43135999999996"><g><svg viewBox="0 0 244.43135999999996 33.269672746714186" height="33.269672746714186" width="244.43135999999996"><g id="textblocktransform"><svg viewBox="0 0 244.43135999999996 33.269672746714186" height="33.269672746714186" width="244.43135999999996" id="textblock"><g><svg viewBox="0 0 244.43135999999996 33.269672746714186" height="33.269672746714186" width="244.43135999999996"><g transform="matrix(1,0,0,1,0,0)"><svg width="244.43135999999996" viewBox="1.95 -29.3 219.17000000000002 29.84" height="33.269672746714186" data-palette-color="#7f84df"><path d="M15.58-29.3L1.95-29.3 1.95-28.03 5.86-28.03 5.86-1.27 1.95-1.27 1.95 0 15.43 0Q22.02 0 26.27-4.1L26.27-4.1Q30.47-8.15 30.47-14.65L30.47-14.65Q30.47-23.05 24.32-26.95L24.32-26.95Q20.56-29.3 15.58-29.3L15.58-29.3ZM10.06-28.03L15.43-28.03Q23.14-28.03 25.05-21L25.05-21Q25.78-18.41 25.78-14.84L25.78-14.84Q25.78-2.69 17.48-1.42L17.48-1.42Q16.55-1.27 15.58-1.27L15.58-1.27 10.06-1.27 10.06-28.03ZM39.26-10.4L39.26-10.4Q39.26-17.97 43.41-19.63L43.41-19.63Q44.48-20.02 45.65-20.02L45.65-20.02Q51.07-20.02 51.95-13.18L51.95-13.18Q52.1-12.01 52.1-10.6L52.1-10.6Q52.1-2.39 47.6-0.98L47.6-0.98Q46.73-0.73 45.8-0.73L45.8-0.73Q40.87-0.73 39.6-6.59L39.6-6.59Q39.26-8.3 39.26-10.4ZM45.8-21.24L45.8-21.24Q41.11-21.24 37.99-18.02L37.99-18.02Q35.1-15.04 35.1-10.6L35.1-10.6Q35.1-4.44 39.6-1.37L39.6-1.37Q42.33 0.49 45.65 0.49L45.65 0.49Q50.34 0.49 53.42-2.83L53.42-2.83Q56.25-5.86 56.25-10.4L56.25-10.4Q56.25-16.55 51.71-19.53L51.71-19.53Q49.02-21.24 45.8-21.24ZM60.15-10.16L60.15-10.16Q60.15-4.25 64.5-1.32L64.5-1.32Q67.18 0.49 70.6 0.49L70.6 0.49Q75.68 0.49 78.27-3.08L78.27-3.08Q78.85-3.91 79.19-4.74L79.19-4.74 77.92-5.18Q76.12-1.32 71.97-0.93L71.97-0.93Q71.58-0.88 71.19-0.88L71.19-0.88Q67.72-0.88 65.77-4.35L65.77-4.35Q64.3-6.98 64.3-10.6L64.3-10.6Q64.3-16.99 67.67-19.14L67.67-19.14Q69.09-20.02 70.8-20.02L70.8-20.02Q73.43-20.02 73.97-17.97L73.97-17.97Q74.07-17.58 74.21-16.75L74.21-16.75Q74.51-14.79 75.29-14.31L75.29-14.31Q75.78-14.06 76.36-14.01L76.36-14.01Q78.02-13.92 78.46-15.38L78.46-15.38Q78.56-15.72 78.56-16.02L78.56-16.02Q78.56-18.51 75.39-20.12L75.39-20.12Q73.14-21.24 70.5-21.24L70.5-21.24Q63.96-21.24 61.37-15.92L61.37-15.92Q60.15-13.38 60.15-10.16ZM104.58-1.22L104.58-1.22 102.14-1.22 102.14-20.75 94.47-20.75 94.47-19.53 98.48-19.53 98.48-8.98Q98.48-4.59 95.4-2.54L95.4-2.54Q94.04-1.61 92.57-1.61L92.57-1.61Q88.57-1.61 87.93-5.71L87.93-5.71Q87.83-6.4 87.83-7.18L87.83-7.18 87.83-20.75 80.41-20.75 80.41-19.53 84.17-19.53 84.17-7.91Q84.22 0.44 91.15 0.49L91.15 0.49Q94.82 0.49 97.16-2.49L97.16-2.49Q98.04-3.61 98.58-4.98L98.58-4.98 98.92 0 105.8 0Q105.8-1.07 105.07-1.17L105.07-1.17Q104.88-1.22 104.58-1.22ZM131.83-22.66L131.83-22.66Q131.83-26.37 128.31-28.17L128.31-28.17Q126.02-29.3 122.79-29.3L122.79-29.3 109.07-29.3 109.07-28.03 112.98-28.03 112.98-1.27 109.07-1.27 109.07 0 122.94 0Q129.24 0 132.17-4L132.17-4Q133.68-6.1 133.68-8.59L133.68-8.59Q133.68-12.5 130.21-14.65L130.21-14.65Q128.6-15.58 126.5-15.97L126.5-15.97Q130.02-17.29 131.34-20.41L131.34-20.41Q131.83-21.58 131.83-22.66ZM117.18-28.03L121.62-28.03Q126.65-28.03 127.33-23.58L127.33-23.58Q127.43-22.95 127.43-22.27L127.43-22.27Q127.43-19.09 124.94-17.48L124.94-17.48Q123.48-16.55 121.52-16.55L121.52-16.55 117.18-16.55 117.18-28.03ZM117.18-15.23L122.45-15.23Q126.89-15.23 128.41-11.47L128.41-11.47Q128.99-10.11 128.99-8.5L128.99-8.5Q128.99-4.74 126.55-2.64L126.55-2.64Q124.94-1.27 122.7-1.27L122.7-1.27 117.18-1.27 117.18-15.23ZM141.98-10.4L141.98-10.4Q141.98-17.97 146.13-19.63L146.13-19.63Q147.2-20.02 148.38-20.02L148.38-20.02Q153.8-20.02 154.68-13.18L154.68-13.18Q154.82-12.01 154.82-10.6L154.82-10.6Q154.82-2.39 150.33-0.98L150.33-0.98Q149.45-0.73 148.52-0.73L148.52-0.73Q143.59-0.73 142.32-6.59L142.32-6.59Q141.98-8.3 141.98-10.4ZM148.52-21.24L148.52-21.24Q143.84-21.24 140.71-18.02L140.71-18.02Q137.83-15.04 137.83-10.6L137.83-10.6Q137.83-4.44 142.32-1.37L142.32-1.37Q145.06 0.49 148.38 0.49L148.38 0.49Q153.06 0.49 156.14-2.83L156.14-2.83Q158.97-5.86 158.97-10.4L158.97-10.4Q158.97-16.55 154.43-19.53L154.43-19.53Q151.75-21.24 148.52-21.24ZM167.03-10.4L167.03-10.4Q167.03-17.97 171.18-19.63L171.18-19.63Q172.25-20.02 173.42-20.02L173.42-20.02Q178.84-20.02 179.72-13.18L179.72-13.18Q179.87-12.01 179.87-10.6L179.87-10.6Q179.87-2.39 175.38-0.98L175.38-0.98Q174.5-0.73 173.57-0.73L173.57-0.73Q168.64-0.73 167.37-6.59L167.37-6.59Q167.03-8.3 167.03-10.4ZM173.57-21.24L173.57-21.24Q168.88-21.24 165.76-18.02L165.76-18.02Q162.88-15.04 162.88-10.6L162.88-10.6Q162.88-4.44 167.37-1.37L167.37-1.37Q170.1 0.49 173.42 0.49L173.42 0.49Q178.11 0.49 181.19-2.83L181.19-2.83Q184.02-5.86 184.02-10.4L184.02-10.4Q184.02-16.55 179.48-19.53L179.48-19.53Q176.79-21.24 173.57-21.24ZM195.25-0.83L195.25-0.83Q198.62-0.83 199.79-2.88L199.79-2.88Q200.23-3.61 200.23-4.49L200.23-4.49Q200.23-6.54 197.25-8.01L197.25-8.01Q196.61-8.35 195.15-8.98L195.15-8.98Q191.14-10.64 189.83-12.11L189.83-12.11Q188.41-13.72 188.41-15.87L188.41-15.87Q188.41-19.24 192.12-20.61L192.12-20.61Q193.83-21.24 195.83-21.24L195.83-21.24Q199.05-21.24 201.4-19.87L201.4-19.87Q201.4-21.29 202.08-21.48L202.08-21.48Q202.38-21.53 202.72-21.53L202.72-21.53 202.72-15.43 201.45-15.43Q201.35-19.92 196.47-19.97L196.47-19.97Q192.8-19.97 191.93-17.82L191.93-17.82Q191.68-17.24 191.68-16.6L191.68-16.6Q191.68-14.5 194.71-13.04L194.71-13.04Q195.39-12.7 196.86-12.11L196.86-12.11Q200.81-10.5 202.13-9.03L202.13-9.03Q203.55-7.47 203.55-5.32L203.55-5.32Q203.55-1.37 199.35-0.05L199.35-0.05Q197.74 0.49 195.83 0.49L195.83 0.49Q192.32 0.44 189.73-1.27L189.73-1.27Q189.73 0 189.09 0.2L189.09 0.2Q188.8 0.24 188.41 0.24L188.41 0.24 188.41-7.18 189.78-7.18Q189.88-0.88 195.25-0.83ZM206.47-20.75L206.47-19.53 209.89-19.53 209.89-5.76Q210.23 0.34 215.51 0.54L215.51 0.54Q220 0.54 221.12-4.98L221.12-4.98Q221.12-5.03 221.12-5.08L221.12-5.08 219.8-5.32Q218.58-1.27 216.24-0.93L216.24-0.93Q213.6-1.03 213.55-4.69L213.55-4.69 213.55-19.53 221.12-19.53 221.12-20.75 213.55-20.75 213.55-26.42 209.89-25.39 209.89-20.75 206.47-20.75Z" opacity="1" transform="matrix(1,0,0,1,0,0)" fill="#7f84df" class="wordmark-text-0" data-fill-palette-color="primary" id="text-0"></path></svg></g></svg></g></svg></g></svg></g></svg></g></svg></g></svg></g><path d="M217.188 100.965L217.188 37.421 389.545 37.421 389.545 209.779 217.188 209.779 217.188 146.235 220.188 146.235 220.188 206.778 386.544 206.778 386.544 40.422 220.188 40.422 220.188 100.965Z" fill="#0e112f" stroke="transparent" data-fill-palette-color="tertiary"></path></svg></g><defs></defs></svg><rect width="395.52" height="247.2" fill="none" stroke="none" visibility="hidden"></rect></g></svg></g></svg>