<svg width="50" height="50" viewBox="0 0 50 50" fill="none" xmlns="http://www.w3.org/2000/svg">
<g clip-path="url(#clip0_70_1508)">
<rect width="50" height="50" fill="white"/>
<path d="M10.875 9.375H23.9531C27.1406 9.375 29.9375 10.125 32.3438 11.625C36.2812 14.125 38.25 18.0625 38.25 23.4375C38.25 27.5938 36.9062 30.9688 34.2188 33.5625C31.5 36.1875 28.0312 37.5 23.8125 37.5H10.875V36.2812H14.625V10.5938H10.875V9.375ZM23.8125 10.5938H18.6562V36.2812H23.9531C24.5781 36.2812 25.1875 36.2344 25.7812 36.1406C31.0938 35.3281 33.75 31.0312 33.75 23.25C33.75 20.9688 33.5156 19 33.0469 17.3438C31.8281 12.8438 28.75 10.5938 23.8125 10.5938Z" fill="black"/>
</g>
<rect x="1" y="1" width="48" height="48" stroke="black" stroke-width="2"/>
<defs>
<clipPath id="clip0_70_1508">
<rect width="50" height="50" fill="white"/>
</clipPath>
</defs>
</svg>
