<svg xmlns="http://www.w3.org/2000/svg" version="1.1" xmlns:xlink="http://www.w3.org/1999/xlink" xmlns:svgjs="http://svgjs.dev/svgjs" width="128" height="128" viewBox="0 0 128 128"><g transform="matrix(0.8046875,0,0,0.8046875,12.333870967741937,12.333870967741937)"><svg viewBox="0 0 155 155" data-background-color="#0e112f" preserveAspectRatio="xMidYMid meet" height="128" width="128" xmlns="http://www.w3.org/2000/svg" xmlns:xlink="http://www.w3.org/1999/xlink"><g id="tight-bounds" transform="matrix(1,0,0,1,0.25,0.25)"><svg viewBox="0 0 154.5 154.5" height="154.5" width="154.5"><g><svg></svg></g><g><svg viewBox="0 0 154.5 154.5" height="154.5" width="154.5"><g transform="matrix(1,0,0,1,48.533134440000005,47.74637100000001)"><svg viewBox="0 0 57.43373111999999 59.007257999999986" height="59.007257999999986" width="57.43373111999999"><g><svg viewBox="0 0 57.43373111999999 59.007257999999986" height="59.007257999999986" width="57.43373111999999"><g><svg viewBox="0 0 57.43373111999999 59.007257999999986" height="59.007257999999986" width="57.43373111999999"><g id="textblocktransform"><svg viewBox="0 0 57.43373111999999 59.007257999999986" height="59.007257999999986" width="57.43373111999999" id="textblock"><g><svg viewBox="0 0 57.43373111999999 59.007257999999986" height="59.007257999999986" width="57.43373111999999"><g transform="matrix(1,0,0,1,0,0)"><svg width="57.43373111999999" viewBox="1.95 -29.3 28.52 29.3" height="59.007257999999986" data-palette-color="#7f84df"><path d="M15.58-29.3L1.95-29.3 1.95-28.03 5.86-28.03 5.86-1.27 1.95-1.27 1.95 0 15.43 0Q22.02 0 26.27-4.1L26.27-4.1Q30.47-8.15 30.47-14.65L30.47-14.65Q30.47-23.05 24.32-26.95L24.32-26.95Q20.56-29.3 15.58-29.3L15.58-29.3ZM10.06-28.03L15.43-28.03Q23.14-28.03 25.05-21L25.05-21Q25.78-18.41 25.78-14.84L25.78-14.84Q25.78-2.69 17.48-1.42L17.48-1.42Q16.55-1.27 15.58-1.27L15.58-1.27 10.06-1.27 10.06-28.03Z" opacity="1" transform="matrix(1,0,0,1,0,0)" fill="#7f84df" class="wordmark-text-0" data-fill-palette-color="primary" id="text-0"></path></svg></g></svg></g></svg></g></svg></g></svg></g></svg></g><path d="M48.533 41.746L48.533 1 105.967 1 105.967 41.746 100.646 41.746 100.646 6.321 53.854 6.321 53.854 41.746 48.533 41.746M48.533 112.754L48.533 153.5 105.967 153.5 105.967 112.754 100.646 112.754 100.646 148.179 53.854 148.179 53.854 112.754 48.533 112.754" fill="#ffffff" stroke="transparent" data-fill-palette-color="tertiary"></path></svg></g><defs></defs></svg><rect width="154.5" height="154.5" fill="none" stroke="none" visibility="hidden"></rect></g></svg></g></svg>